<?xml version="1.0" encoding="iso-8859-1"?>
<!-- Generator: Adobe Illustrator 19.0.0, SVG Export Plug-In . SVG Version: 6.00 Build 0)  -->
<svg xmlns="http://www.w3.org/2000/svg" xmlns:xlink="http://www.w3.org/1999/xlink" version="1.1" id="Layer_1" x="0px" y="0px" viewBox="0 0 449.371 449.371" style="enable-background:new 0 0 449.371 449.371;" xml:space="preserve" width="512" height="512">
<g>
	<g>
		<path style="fill:#FF6361;" d="M112.83,317.133c17.602-17.604,3.014-36.172-2.049-46.387l0.002,0.004    c-29.989-55.971-27.083-119.641,21.986-168.713c64.246-64.244,186.777-82.613,251.023-18.367s45.878,186.777-18.367,251.023    c-49.069,49.068-112.741,51.975-168.711,21.988h0.002c-10.217-5.065-28.784-19.652-46.386-2.049L112.83,317.133z"/>
		<path style="fill:#7C5C5B;" d="M293.553,373.875L93.587,173.908c-6,32.102,0.491,65.666,17.196,96.842l-0.002-0.004    c5.063,10.215,19.651,28.783,2.049,46.387l37.501,37.5c17.602-17.604,36.168-3.016,46.386,2.049h-0.002    C227.888,373.385,261.453,379.879,293.553,373.875z"/>
		<path style="fill:#A77F73;" d="M174.024,254.346L32.698,385.5c-9.207,8.457-9.506,22.609-0.667,31.447l18.483,18.486    c8.839,8.838,22.991,8.537,31.449-0.668l131.152-141.326L174.024,254.346z"/>
	</g>
	<circle style="fill:#E8E8E8;" cx="140.774" cy="75.035" r="67.535"/>
	<g>
		<path style="fill:#5C6670;" d="M110.193,96.41c-2.853,0-5.58-1.637-6.835-4.404c-1.711-3.772-0.04-8.217,3.733-9.928    l61.172-27.744c3.77-1.711,8.217-0.04,9.928,3.732c1.71,3.772,0.04,8.217-3.733,9.928l-61.172,27.744    C112.281,96.194,111.229,96.41,110.193,96.41z"/>
		<path style="fill:#5C6670;" d="M133.525,112.908c-2.853,0-5.58-1.637-6.835-4.404c-1.71-3.772-0.039-8.217,3.733-9.928    l33.479-15.184c3.772-1.711,8.217-0.04,9.928,3.732c1.71,3.772,0.04,8.217-3.733,9.928l-33.479,15.184    C135.613,112.692,134.561,112.908,133.525,112.908z"/>
		<path d="M424.258,138.852c-6.966-23.769-18.797-44.12-35.163-60.486c-22.148-22.148-52.2-36.202-86.91-40.645    c-29.676-3.796-61.251-0.535-91.78,9.405C199.307,19.537,172.288,0,140.775,0C99.4,0,65.739,33.66,65.739,75.035    c0,25.596,12.891,48.229,32.513,61.777c-10.189,20.388-15.008,42.329-14.296,65.337c0.749,24.197,7.532,48.434,20.162,72.04    c0.744,1.491,1.619,3.058,2.545,4.714c3.49,6.244,7.734,13.868,7.005,21.224l-86.043,79.85    c-5.973,5.486-9.355,12.925-9.525,20.946c-0.17,8.02,2.894,15.595,8.628,21.327l18.484,18.487    c5.583,5.582,12.91,8.634,20.695,8.634c0.211,0,0.421-0.003,0.632-0.007c8.021-0.17,15.46-3.553,20.922-9.497l79.879-86.076    c7.351-0.727,14.98,3.522,21.218,7.009c1.644,0.919,3.2,1.788,4.681,2.529c25.311,13.547,51.176,20.228,76.206,20.227    c37.147-0.002,72.445-14.723,101.282-43.559c32.941-32.942,54.639-80.355,59.529-130.081    C432.729,184.778,430.71,160.869,424.258,138.852z M80.739,75.035C80.739,41.932,107.671,15,140.775,15    c33.103,0,60.035,26.932,60.035,60.035s-26.932,60.035-60.035,60.035C107.671,135.07,80.739,108.139,80.739,75.035z     M99.091,190.02l64.125,64.124l-36.11,33.511c-1.862-6.245-4.93-11.739-7.351-16.07c-0.854-1.526-1.66-2.969-2.25-4.159    c-0.005-0.012-0.011-0.022-0.017-0.034c-0.04-0.08-0.081-0.159-0.124-0.237C103.586,241.416,97.494,215.156,99.091,190.02z     M76.441,429.691c-2.695,2.933-6.324,4.594-10.219,4.676c-3.903,0.062-7.589-1.421-10.404-4.236l-18.484-18.487    c-2.815-2.815-4.321-6.51-4.238-10.403c0.083-3.895,1.743-7.522,4.704-10.243l136.03-126.239l28.875,28.875L76.441,429.691z     M200.373,350.134c-0.107-0.06-0.215-0.117-0.326-0.172c-1.193-0.591-2.639-1.399-4.17-2.256    c-4.321-2.415-9.817-5.487-16.067-7.351l33.509-36.108l64.08,64.079C252.139,369.876,225.635,363.643,200.373,350.134z     M415.328,208.447c-4.489,45.65-25.127,90.862-55.207,120.942c-18.979,18.979-40.491,31.165-64.1,36.347L101.722,171.438    c2.087-9.38,5.312-18.531,9.667-27.366c9.03,3.858,18.962,5.999,29.385,5.999c41.374,0,75.035-33.66,75.035-75.035    c0-4.608-0.439-9.113-1.239-13.494c28.576-9.381,58.072-12.48,85.71-8.941c31.386,4.017,58.429,16.594,78.208,36.373    C407.016,117.501,420.1,159.932,415.328,208.447z"/>
	</g>
</g>















</svg>
